<svg version="1.1" xmlns="http://www.w3.org/2000/svg" xmlns:xlink="http://www.w3.org/1999/xlink" preserveAspectRatio="xMidYMid meet" viewBox="0 0 430 167" width="430" height="167"><defs><path d="M175.92 77.59L134.78 22.98L134.78 77.59L123.18 77.59L123.18 0.98L132.48 0.98L173.95 55.48L173.95 0.98L185.55 0.98L185.55 77.59L175.92 77.59Z" id="d5RQRQtXjW"></path><path d="M248.2 28.67C247.22 25.39 245.72 22.49 243.71 19.97C241.71 17.45 239.21 15.47 236.22 14.01C233.23 12.55 229.73 11.82 225.71 11.82C221.77 11.82 218.31 12.55 215.32 14.01C212.33 15.47 209.85 17.44 207.88 19.92C205.91 22.4 204.41 25.28 203.39 28.56C202.37 31.84 201.86 35.31 201.86 38.96C201.86 42.6 202.37 46.07 203.39 49.35C204.41 52.64 205.91 55.54 207.88 58.05C209.85 60.57 212.33 62.58 215.32 64.07C218.31 65.57 221.77 66.31 225.71 66.31C229.73 66.31 233.23 65.58 236.22 64.13C239.21 62.67 241.71 60.68 243.71 58.16C245.72 55.64 247.22 52.74 248.2 49.46C249.19 46.18 249.68 42.68 249.68 38.96C249.68 35.38 249.19 31.95 248.2 28.67ZM259.36 53.62C257.87 58.36 255.61 62.54 252.58 66.15C249.55 69.76 245.79 72.66 241.31 74.85C236.82 77.04 231.62 78.13 225.71 78.13C219.8 78.13 214.62 77.04 210.17 74.85C205.72 72.66 201.99 69.76 198.96 66.15C195.93 62.54 193.67 58.36 192.17 53.62C190.68 48.88 189.93 43.95 189.93 38.85C189.93 33.81 190.68 28.94 192.17 24.24C193.67 19.53 195.93 15.39 198.96 11.82C201.99 8.24 205.72 5.38 210.17 3.23C214.62 1.08 219.8 0 225.71 0C231.62 0 236.82 1.08 241.31 3.23C245.79 5.38 249.55 8.24 252.58 11.82C255.61 15.39 257.87 19.53 259.36 24.24C260.86 28.94 261.61 33.81 261.61 38.85C261.61 43.95 260.86 48.88 259.36 53.62Z" id="bDPdVXitD"></path><path d="M295.97 12.8L295.97 77.59L284.15 77.59L284.15 12.8L265.98 12.8L265.98 0.98L313.8 0.98L313.8 12.8L295.97 12.8Z" id="a8VFxPMmMR"></path><path d="M318.18 77.59L318.18 0.98L365.45 0.98L365.45 12.8L330 12.8L330 31.95L362.28 31.95L362.28 43.77L330 43.77L330 65.77L365.78 65.77L365.78 77.59L318.18 77.59Z" id="f1CenXE56"></path><path d="M415.57 19.48C413.53 17 411.29 15.21 408.84 14.12C406.4 13.02 403.54 12.47 400.25 12.47C396.02 12.47 392.72 13.3 390.35 14.94C387.98 16.58 386.79 18.57 386.79 20.9C386.79 22.36 387.32 23.65 388.38 24.79C389.44 25.92 390.81 26.94 392.48 27.85C394.16 28.76 395.98 29.62 397.95 30.42C399.92 31.22 401.86 31.95 403.75 32.61C403.74 32.61 403.66 32.61 403.64 32.61C405.76 33.34 408.15 34.29 410.81 35.46C413.48 36.62 415.99 38.12 418.36 39.94C420.73 41.77 422.74 43.95 424.38 46.51C426.02 49.06 426.84 52.09 426.84 55.59C426.84 59.24 426.15 62.47 424.76 65.27C423.38 68.08 421.45 70.44 418.96 72.33C416.48 74.23 413.58 75.67 410.27 76.66C406.95 77.64 403.35 78.13 399.49 78.13C394.02 78.13 388.91 76.97 384.17 74.63C379.42 72.3 374.76 68.58 370.16 63.47C371.12 62.68 378.83 56.38 379.79 55.59C382.42 59.24 385.39 61.9 388.71 63.58C392.03 65.26 395.66 66.1 399.6 66.1C401.86 66.1 403.92 65.88 405.78 65.44C407.64 65 409.24 64.38 410.59 63.58C411.94 62.78 413 61.83 413.77 60.73C414.53 59.64 414.92 58.44 414.92 57.12C414.92 55.3 414.37 53.69 413.27 52.31C412.18 50.92 410.79 49.7 409.12 48.64C407.44 47.58 405.54 46.67 403.43 45.91C401.31 45.14 399.27 44.43 397.3 43.77C397.04 43.67 394.93 42.89 394.67 42.79C392.19 41.91 389.77 40.98 387.39 40C385.02 39.01 382.89 37.73 380.99 36.17C379.1 34.6 377.56 32.65 376.4 30.31C375.23 27.98 374.65 25.1 374.65 21.67C374.65 18.97 375.12 16.34 376.07 13.79C377.02 11.23 378.51 8.99 380.56 7.06C382.6 5.12 385.22 3.57 388.43 2.41C391.64 1.24 395.51 0.66 400.03 0.66C402.66 0.66 405.18 0.88 407.58 1.31C409.99 1.75 412.33 2.5 414.59 3.56C416.85 4.61 419.06 6 421.21 7.71C423.36 9.43 425.49 11.56 427.61 14.12C426.93 14.66 423.54 17.36 417.43 22.21C416.44 20.76 415.82 19.84 415.57 19.48Z" id="p14SgZ0DFf"></path><path d="M123.18 165.52L123.18 95.3L133.91 95.3L133.91 124.79L163.4 95.3L177.95 95.3C157.42 115.76 146.02 127.13 143.74 129.41C146.42 132.21 149.21 135.16 152.12 138.23C155.03 141.31 157.95 144.42 160.89 147.56C163.84 150.7 166.76 153.8 169.67 156.84C172.58 159.88 175.34 162.77 177.95 165.52C176.94 165.52 171.93 165.52 162.9 165.52L133.91 134.62L133.91 165.52L123.18 165.52Z" id="a519cdlTWK"></path><path d="M181.96 165.52L181.96 95.3L225.29 95.3L225.29 106.13L192.79 106.13L192.79 123.69L222.38 123.69L222.38 134.52L192.79 134.52L192.79 154.68L225.59 154.68L225.59 165.52L181.96 165.52Z" id="b3eTdBW01"></path><path d="M229.6 165.52L229.6 95.3L272.94 95.3L272.94 106.13L240.44 106.13L240.44 123.69L270.03 123.69L270.03 134.52L240.44 134.52L240.44 154.68L273.24 154.68L273.24 165.52L229.6 165.52Z" id="a49tTQ2BaM"></path><path d="M287.98 137.13L287.98 165.52L277.25 165.52L277.25 95.3C293.2 95.3 302.06 95.3 303.83 95.3C306.71 95.3 309.41 95.85 311.96 96.96C314.5 98.06 316.72 99.56 318.63 101.47C320.53 103.38 322.04 105.6 323.14 108.14C324.24 110.68 324.8 113.39 324.8 116.27C324.8 119.14 324.24 121.85 323.14 124.39C322.04 126.93 320.53 129.14 318.63 131.01C316.72 132.88 314.5 134.37 311.96 135.47C309.41 136.58 306.71 137.13 303.83 137.13C301.72 137.13 296.43 137.13 287.98 137.13ZM287.98 126.3C297.49 126.3 302.77 126.3 303.83 126.3C305.24 126.3 306.54 126.05 307.74 125.54C308.95 125.04 310.02 124.34 310.95 123.44C311.89 122.53 312.62 121.46 313.16 120.23C313.69 118.99 313.96 117.67 313.96 116.27C313.96 114.86 313.69 113.56 313.16 112.35C312.62 111.15 311.89 110.1 310.95 109.19C310.02 108.29 308.95 107.56 307.74 106.99C306.54 106.42 305.24 106.13 303.83 106.13C302.77 106.13 297.49 106.13 287.98 106.13L287.98 126.3Z" id="eY7CvLxTn"></path><path d="M328.81 165.52L328.81 95.3L372.14 95.3L372.14 106.13L339.64 106.13L339.64 123.69L369.23 123.69L369.23 134.52L339.64 134.52L339.64 154.68L372.44 154.68L372.44 165.52L328.81 165.52Z" id="b18xwpzHQz"></path><path d="M399.82 137.13L387.29 137.13L387.29 165.52L376.45 165.52L376.45 95.3C392.46 95.3 401.36 95.3 403.13 95.3C406.01 95.3 408.7 95.85 411.21 96.96C413.72 98.06 415.92 99.56 417.83 101.47C419.74 103.38 421.24 105.6 422.34 108.14C423.45 110.68 424 113.39 424 116.27C424 120.48 422.85 124.29 420.54 127.7C418.23 131.11 415.31 133.65 411.76 135.32C412.82 137.34 418.1 147.4 427.61 165.52L415.37 165.52L399.82 137.13ZM387.29 126.3C396.8 126.3 402.08 126.3 403.13 126.3C404.54 126.3 405.84 126.05 407.05 125.54C408.25 125.04 409.3 124.34 410.21 123.44C411.11 122.53 411.83 121.46 412.36 120.23C412.9 118.99 413.17 117.67 413.17 116.27C413.17 113.46 412.2 111.08 410.26 109.14C408.32 107.2 405.94 106.2 403.13 106.13C402.08 106.13 396.8 106.13 387.29 106.13L387.29 126.3Z" id="a2gNFdcua"></path><path d="M13.8 10.95C13.08 11.67 12.8 14.55 12.65 19.74C12.51 24.64 11.93 29.68 11.07 33.43C5.59 55.61 1.99 89.9 1.99 117.85C2.13 136.14 2.85 143.2 6.02 157.46C7.46 164.09 7.61 164.38 9.77 165.1C12.36 165.96 18.99 165.39 22.02 164.24C22.14 164.19 22.76 163.95 23.89 163.52C23.8 144.24 23.75 133.53 23.74 131.39C23.74 113.81 23.89 96.09 24.32 91.92C24.36 91.42 24.55 88.92 24.9 84.42C27.58 90.3 29.06 93.57 29.36 94.22C33.97 104.02 43.48 119 48.23 123.61C51.26 126.64 55.58 127.36 63.22 126.2C69.27 125.34 71.43 124.33 72.01 122.03C72.44 120.44 72.87 113.96 73.45 94.51C74.45 69.59 76.76 51.15 82.23 25.07C83.96 16.86 85.69 8.65 85.84 7.06C85.98 5.33 86.27 3.32 86.27 2.6C86.56 1.01 84.54 0.15 80.65 0C77.77 -0.14 73.16 4.76 70.71 10.52C62.79 29.1 58.9 47.4 53.85 88.46C53.81 88.78 53.62 90.42 53.28 93.36C51.46 88.69 50.45 86.1 50.25 85.58C45.07 72.32 43.19 65.12 38.73 43.51C32.53 12.54 32.68 12.82 27.78 11.1C24.18 9.8 14.96 9.8 13.8 10.95Z" id="ccYUyMeA6"></path><path d="M99.85 165.52L99.85 0L102.62 0L102.62 165.52L99.85 165.52Z" id="bEdrpqzJt"></path></defs><g><g><g><use xlink:href="#d5RQRQtXjW" opacity="1" fill="#000000" fill-opacity="1"></use><g><use xlink:href="#d5RQRQtXjW" opacity="1" fill-opacity="0" stroke="#000000" stroke-width="1" stroke-opacity="0"></use></g></g><g><use xlink:href="#bDPdVXitD" opacity="1" fill="#000000" fill-opacity="1"></use><g><use xlink:href="#bDPdVXitD" opacity="1" fill-opacity="0" stroke="#000000" stroke-width="1" stroke-opacity="0"></use></g></g><g><use xlink:href="#a8VFxPMmMR" opacity="1" fill="#000000" fill-opacity="1"></use><g><use xlink:href="#a8VFxPMmMR" opacity="1" fill-opacity="0" stroke="#000000" stroke-width="1" stroke-opacity="0"></use></g></g><g><use xlink:href="#f1CenXE56" opacity="1" fill="#000000" fill-opacity="1"></use><g><use xlink:href="#f1CenXE56" opacity="1" fill-opacity="0" stroke="#000000" stroke-width="1" stroke-opacity="0"></use></g></g><g><use xlink:href="#p14SgZ0DFf" opacity="1" fill="#000000" fill-opacity="1"></use><g><use xlink:href="#p14SgZ0DFf" opacity="1" fill-opacity="0" stroke="#000000" stroke-width="1" stroke-opacity="0"></use></g></g><g><use xlink:href="#a519cdlTWK" opacity="1" fill="#000000" fill-opacity="1"></use><g><use xlink:href="#a519cdlTWK" opacity="1" fill-opacity="0" stroke="#000000" stroke-width="1" stroke-opacity="0"></use></g></g><g><use xlink:href="#b3eTdBW01" opacity="1" fill="#000000" fill-opacity="1"></use><g><use xlink:href="#b3eTdBW01" opacity="1" fill-opacity="0" stroke="#000000" stroke-width="1" stroke-opacity="0"></use></g></g><g><use xlink:href="#a49tTQ2BaM" opacity="1" fill="#000000" fill-opacity="1"></use><g><use xlink:href="#a49tTQ2BaM" opacity="1" fill-opacity="0" stroke="#000000" stroke-width="1" stroke-opacity="0"></use></g></g><g><use xlink:href="#eY7CvLxTn" opacity="1" fill="#000000" fill-opacity="1"></use><g><use xlink:href="#eY7CvLxTn" opacity="1" fill-opacity="0" stroke="#000000" stroke-width="1" stroke-opacity="0"></use></g></g><g><use xlink:href="#b18xwpzHQz" opacity="1" fill="#000000" fill-opacity="1"></use><g><use xlink:href="#b18xwpzHQz" opacity="1" fill-opacity="0" stroke="#000000" stroke-width="1" stroke-opacity="0"></use></g></g><g><use xlink:href="#a2gNFdcua" opacity="1" fill="#000000" fill-opacity="1"></use><g><use xlink:href="#a2gNFdcua" opacity="1" fill-opacity="0" stroke="#000000" stroke-width="1" stroke-opacity="0"></use></g></g><g><use xlink:href="#ccYUyMeA6" opacity="1" fill="#cf3c3c" fill-opacity="1"></use><g><use xlink:href="#ccYUyMeA6" opacity="1" fill-opacity="0" stroke="#000000" stroke-width="1" stroke-opacity="0"></use></g></g><g><use xlink:href="#bEdrpqzJt" opacity="1" fill="#000000" fill-opacity="1"></use><g><use xlink:href="#bEdrpqzJt" opacity="1" fill-opacity="0" stroke="#000000" stroke-width="1" stroke-opacity="0"></use></g></g></g></g></svg>